<svg xmlns="http://www.w3.org/2000/svg" xmlns:xlink="http://www.w3.org/1999/xlink" width="1516" height="926" viewBox="0 0 1516 926">
  <defs>
    <clipPath id="clip-path">
      <rect id="Rectangle_25" data-name="Rectangle 25" width="1516" height="926" transform="translate(404 3497)" fill="rgba(204,190,243,0.1)"/>
    </clipPath>
  </defs>
  <g id="Group_1876" data-name="Group 1876" transform="translate(-404 -5489)">
    <rect id="Rectangle_24" data-name="Rectangle 24" width="1516" height="926" transform="translate(404 5489)" fill="rgba(204,190,243,0.1)"/>
    <g id="Mask_Group_6" data-name="Mask Group 6" transform="translate(0 1992)" clip-path="url(#clip-path)">
      <g id="Group_79" data-name="Group 79" transform="translate(-394.453 2640.513)" opacity="0.1">
        <path id="Path_171" data-name="Path 171" d="M15.36,262.45c1178.962-593.784,1304,2805.927,3900.315-157.18" transform="translate(-241.601 493.478)" fill="none" stroke="#000" stroke-linecap="round" stroke-linejoin="round" stroke-width="1"/>
        <path id="Path_172" data-name="Path 172" d="M15.88,259.1C1233.14-428.773,1389.351,2985.014,3923.319,116.17" transform="translate(-239.158 544.698)" fill="none" stroke="#000" stroke-linecap="round" stroke-linejoin="round" stroke-width="0.98"/>
        <path id="Path_173" data-name="Path 173" d="M16.4,255.65c1255.614-781.909,1442.714,2645.9,3914.563-128.57" transform="translate(-236.714 595.965)" fill="none" stroke="#000" stroke-linecap="round" stroke-linejoin="round" stroke-width="0.95"/>
        <path id="Path_174" data-name="Path 174" d="M16.92,279.058C1311.06-596.715,1528.992,2845.169,3938.606,165.077" transform="translate(-234.271 620.201)" fill="none" stroke="#000" stroke-linecap="round" stroke-linejoin="round" stroke-width="0.93"/>
        <path id="Path_175" data-name="Path 175" d="M17.45,312.3C1349.6-657.731,1598.822,2798.229,3946.26,212.286" transform="translate(-231.78 634.998)" fill="none" stroke="#000" stroke-linecap="round" stroke-linejoin="round" stroke-width="0.9"/>
        <path id="Path_176" data-name="Path 176" d="M18,347.258C1388.279-716.868,1668.558,2753.225,3953.763,261.487" transform="translate(-229.196 647.916)" fill="none" stroke="#000" stroke-linecap="round" stroke-linejoin="round" stroke-width="0.88"/>
        <path id="Path_177" data-name="Path 177" d="M18.49,383.888c1408.8-1158.218,1720.087,2325.9,3943.057-71.466" transform="translate(-226.893 659.158)" fill="none" stroke="#000" stroke-linecap="round" stroke-linejoin="round" stroke-width="0.85"/>
        <path id="Path_178" data-name="Path 178" d="M19,422.053C1466.1-830.2,1808.5,2667.934,3969.182,365.062" transform="translate(-224.497 668.808)" fill="none" stroke="#000" stroke-linecap="round" stroke-linejoin="round" stroke-width="0.83"/>
        <path id="Path_179" data-name="Path 179" d="M19.53,461.7c1485.4-1346.343,1858.8,2165.639,3957.305-42.914" transform="translate(-222.006 676.919)" fill="none" stroke="#000" stroke-linecap="round" stroke-linejoin="round" stroke-width="0.81"/>
        <path id="Path_180" data-name="Path 180" d="M20.06,502.7C1543.7-937.68,1948.162,2588.55,3984.432,474.2" transform="translate(-219.516 683.851)" fill="none" stroke="#000" stroke-linecap="round" stroke-linejoin="round" stroke-width="0.78"/>
        <path id="Path_181" data-name="Path 181" d="M20.58,544.975c1562-1534.469,1997.46,2006.065,3971.5-14.3" transform="translate(-217.072 689.446)" fill="none" stroke="#000" stroke-linecap="round" stroke-linejoin="round" stroke-width="0.76"/>
        <path id="Path_182" data-name="Path 182" d="M21.1,588.468c1600.293-1628.56,2066.817,1925.88,3978.62,0" transform="translate(-214.629 693.824)" fill="none" stroke="#000" stroke-linecap="round" stroke-linejoin="round" stroke-width="0.73"/>
        <path id="Path_183" data-name="Path 183" d="M21.62,633.031c1638.59-1722.595,2136.174,1845.865,3985.8,14.248" transform="translate(-212.185 697.077)" fill="none" stroke="#000" stroke-linecap="round" stroke-linejoin="round" stroke-width="0.71"/>
        <path id="Path_184" data-name="Path 184" d="M22.14,678.654c1676.888-1816.686,2205.532,1765.85,3992.867,28.5" transform="translate(-209.742 699.325)" fill="rgba(255,0,0,0)" stroke="#000" stroke-linecap="round" stroke-linejoin="round" stroke-width="0.69"/>
        <path id="Path_185" data-name="Path 185" d="M22.66,725.2C1738.074-1185.516,2297.549,2411.1,4022.708,768.06" transform="translate(-207.298 700.591)" fill="none" stroke="#000" stroke-linecap="round" stroke-linejoin="round" stroke-width="0.66"/>
        <path id="Path_186" data-name="Path 186" d="M23.19,772.7c1753.483-2004.868,2344.19,1605.878,4007.115,57.1" transform="translate(-204.808 700.963)" fill="none" stroke="#000" stroke-linecap="round" stroke-linejoin="round" stroke-width="0.64"/>
        <path id="Path_187" data-name="Path 187" d="M23.71,820.979c1791.781-2098.846,2413.547,1525.863,4014.239,71.352" transform="translate(-202.364 700.559)" fill="none" stroke="#000" stroke-linecap="round" stroke-linejoin="round" stroke-width="0.61"/>
        <path id="Path_188" data-name="Path 188" d="M24.23,870.04c1830.135-2192.88,2482.9,1445.849,4021.363,85.486" transform="translate(-199.921 699.313)" fill="none" stroke="#000" stroke-linecap="round" stroke-linejoin="round" stroke-width="0.59"/>
        <path id="Path_189" data-name="Path 189" d="M24.75,919.923c1868.433-2287.085,2552.262,1365.72,4028.487,99.847" transform="translate(-197.477 697.416)" fill="none" stroke="#000" stroke-linecap="round" stroke-linejoin="round" stroke-width="0.56"/>
        <path id="Path_190" data-name="Path 190" d="M25.27,970.295C1932-1410.711,2646.833,2256.171,4060.881,1084.561" transform="translate(-195.034 694.745)" fill="none" stroke="#000" stroke-linecap="round" stroke-linejoin="round" stroke-width="0.54"/>
        <path id="Path_191" data-name="Path 191" d="M25.8,1021.4c1944.971-2475.1,2691.091,1205.862,4042.677,128.514" transform="translate(-192.543 691.51)" fill="none" stroke="#000" stroke-linecap="round" stroke-linejoin="round" stroke-width="0.52"/>
        <path id="Path_192" data-name="Path 192" d="M26.32,1073.053c1983.269-2569.131,2760.334,1125.9,4049.8,142.818" transform="translate(-190.1 687.674)" fill="none" stroke="#000" stroke-linecap="round" stroke-linejoin="round" stroke-width="0.49"/>
        <path id="Path_193" data-name="Path 193" d="M26.84,1125.29c2021.624-2663.222,2829.692,1045.833,4056.925,157.123" transform="translate(-187.656 683.309)" fill="none" stroke="#000" stroke-linecap="round" stroke-linejoin="round" stroke-width="0.47"/>
        <path id="Path_194" data-name="Path 194" d="M27.36,1178.185c2059.921-2757.542,2899.049,965.59,4064.048,170.971" transform="translate(-185.213 678.515)" fill="none" stroke="#000" stroke-linecap="round" stroke-linejoin="round" stroke-width="0.44"/>
        <path id="Path_195" data-name="Path 195" d="M27.88,1231.25C2126.1-1620.27,2996.287,2117.11,4099.052,1416.924" transform="translate(-182.769 673.037)" fill="none" stroke="#000" stroke-linecap="round" stroke-linejoin="round" stroke-width="0.42"/>
        <path id="Path_196" data-name="Path 196" d="M28.41,1284.828C2164.926-1660.612,3066,2090.673,4106.707,1484.75" transform="translate(-180.279 667.331)" fill="none" stroke="#000" stroke-linecap="round" stroke-linejoin="round" stroke-width="0.4"/>
        <path id="Path_197" data-name="Path 197" d="M28.93,1338.833c2174.814-3039.474,3107.064,725.888,4085.42,214.284" transform="translate(-177.835 661.14)" fill="none" stroke="#000" stroke-linecap="round" stroke-linejoin="round" stroke-width="0.37"/>
        <path id="Path_198" data-name="Path 198" d="M29.45,1393.269C2242.562-1740.3,3205.872,2039.085,4121.994,1621.8" transform="translate(-175.392 654.577)" fill="none" stroke="#000" stroke-linecap="round" stroke-linejoin="round" stroke-width="0.35"/>
        <path id="Path_199" data-name="Path 199" d="M30,1448.05c2251.124-3227.656,3245.608,565.8,4099.5,242.78" transform="translate(-172.807 647.668)" fill="none" stroke="#000" stroke-linecap="round" stroke-linejoin="round" stroke-width="0.32"/>
        <path id="Path_200" data-name="Path 200" d="M30.49,1503.119c2289.764-3321.69,3315.137,485.844,4106.791,257.084" transform="translate(-170.505 640.413)" fill="none" stroke="#000" stroke-linecap="round" stroke-linejoin="round" stroke-width="0.3"/>
        <path id="Path_201" data-name="Path 201" d="M31,1558.537c2328.061-3415.782,3384.494,405.829,4113.915,271.389" transform="translate(-168.108 632.867)" fill="none" stroke="#000" stroke-linecap="round" stroke-linejoin="round" stroke-width="0.27"/>
        <path id="Path_202" data-name="Path 202" d="M31.54,1614.2c2366.3-3509.816,3453.624,325.872,4120.982,285.693" transform="translate(-165.571 625.016)" fill="none" stroke="#000" stroke-linecap="round" stroke-linejoin="round" stroke-width="0.25"/>
      </g>
    </g>
  </g>
</svg>
