<svg xmlns="http://www.w3.org/2000/svg" width="100" height="100" viewBox="0 0 100 100">
  <g id="Group_58" data-name="Group 58" transform="translate(-0.058 -0.1)">
    <rect id="Rectangle_14" data-name="Rectangle 14" width="100" height="100" transform="translate(0.058 0.1)" fill="none"/>
    <g id="clothes" transform="translate(5.998 6.125)">
      <path id="Path_96" data-name="Path 96" d="M285.227,80.017,273.375,42.15a4.246,4.246,0,0,0-.338-7.611l3.583-14.332A12.728,12.728,0,0,0,277,17.115V15.91a7.365,7.365,0,0,0-5.694-7.156V0h-2.847V8.642a7.32,7.32,0,0,0-5.662,4.533l-.031.08-.031-.08a7.322,7.322,0,0,0-5.662-4.533V0h-2.847V8.752a7.366,7.366,0,0,0-5.694,7.156,22.523,22.523,0,0,0,.673,5.466l3.29,13.165a4.246,4.246,0,0,0-.337,7.611L240.307,80.017a6.9,6.9,0,0,0,1.852,7.075.515.515,0,0,0,.041.037,4.248,4.248,0,0,0,5.789-.034l.566-.541a1.394,1.394,0,0,1,1.888,0l.565.542a4.255,4.255,0,0,0,5.829,0l.564-.541a1.4,1.4,0,0,1,1.889,0l.565.542a4.252,4.252,0,0,0,5.827,0l.565-.542a1.4,1.4,0,0,1,1.888,0l.565.542a4.249,4.249,0,0,0,5.827,0l.565-.541a1.4,1.4,0,0,1,1.889,0l.565.542a4.253,4.253,0,0,0,5.788.037l.043-.04a6.9,6.9,0,0,0,1.85-7.075Zm-31-40.157a1.423,1.423,0,1,1,0-2.847h17.081a1.423,1.423,0,1,1,0,2.847ZM251.38,15.91a4.518,4.518,0,0,1,8.713-1.678l1.353,3.382a1.422,1.422,0,0,0,2.642,0l1.354-3.382a4.518,4.518,0,0,1,8.713,1.678v1.205a9.915,9.915,0,0,1-.3,2.4L270.2,34.166H255.339l-3.37-13.481a19.7,19.7,0,0,1-.588-4.776Zm-4.8,68.587-.566.543a1.393,1.393,0,0,1-1.886,0c-.01-.01-.021-.02-.031-.03a4.067,4.067,0,0,1-1.077-4.142l11.944-38.161h1.793l-8.147,40.736a4.159,4.159,0,0,0-2.029,1.054Zm8.845,0-.564.543a1.4,1.4,0,0,1-1.887,0l-.566-.544a4.074,4.074,0,0,0-.972-.669l8.224-41.12h1.68V84.579l-.087-.083a4.254,4.254,0,0,0-5.828,0Zm17.127.543a1.393,1.393,0,0,1-1.886,0L270.1,84.5a4.254,4.254,0,0,0-5.826,0l-.087.083V42.707h1.679L274.1,83.828a4.023,4.023,0,0,0-.972.671Zm8.879-.03-.033.03a1.4,1.4,0,0,1-1.886,0l-.566-.544a4.142,4.142,0,0,0-2.029-1.053l-8.148-40.736h1.794l11.944,38.162a4.071,4.071,0,0,1-1.077,4.141Zm0,0" transform="translate(-197.291 -0.004)" fill="#4c27b3"/>
      <path id="Path_97" data-name="Path 97" d="M48.1,35.042a1.421,1.421,0,0,0,.259-1.22L42.66,11.047a1.421,1.421,0,0,0-.819-.964l-9.1-3.9V1.427A1.423,1.423,0,0,0,31.316,0H17.082a1.423,1.423,0,0,0-1.423,1.423V6.184l-9.1,3.9a1.423,1.423,0,0,0-.82.964L.043,33.822A1.424,1.424,0,0,0,1.424,35.59H8.541A1.425,1.425,0,0,0,9.9,34.575l2.01-6.7.9,13.5a1.422,1.422,0,0,0,1.419,1.33H34.163a1.424,1.424,0,0,0,1.421-1.33l.9-13.5,2.01,6.7a1.422,1.422,0,0,0,1.362,1.015h7.117a1.422,1.422,0,0,0,1.122-.548ZM24.2,22.816,19.1,8.545H29.3ZM18.5,2.851H29.892V5.7H18.5ZM7.482,32.743H3.247L8.328,12.422l.764-.326,2.237,7.827Zm6.75-12.9a1.391,1.391,0,0,0-.051-.3l-2.451-8.579L16.25,9.026,22.775,27.3V39.86H15.567ZM32.83,39.86H25.622V27.3l6.525-18.27,4.52,1.938L34.217,19.54l.019.006a1.325,1.325,0,0,0-.071.291Zm8.085-7.117-3.846-12.82,2.236-7.827.765.327,5.08,20.321Zm0,0" transform="translate(-0.001 -0.004)" fill="#4c27b3"/>
      <path id="Path_98" data-name="Path 98" d="M93.351,256H73.423A1.423,1.423,0,0,0,72,257.427v39.856a1.423,1.423,0,0,0,1.423,1.423h5.694a1.424,1.424,0,0,0,1.406-1.2l2.864-18.14,2.864,18.14a1.424,1.424,0,0,0,1.407,1.2h5.694a1.423,1.423,0,0,0,1.423-1.423V257.427A1.423,1.423,0,0,0,93.351,256ZM91.928,295.86H88.873l-4.081-25.843a1.423,1.423,0,0,0-2.811,0L77.9,295.86H74.847V258.851H91.928Zm0,0" transform="translate(-59.189 -210.455)" fill="#4c27b3"/>
    </g>
  </g>
</svg>
