<svg xmlns="http://www.w3.org/2000/svg" width="236.8" height="121.163" viewBox="0 0 236.8 121.163">
  <g id="Group_88" data-name="Group 88" transform="translate(-130 -59.906)">
    <g id="Group_19" data-name="Group 19" transform="translate(207 66)">
      <path id="Path_37" data-name="Path 37" d="M186.75,163.448h3.115V149.6h12.556v13.848h6.836v10.414h-6.836v23.15q0,5.263,5.427,5.257v11.121q-9.446,0-13.715-3.944t-4.253-12.434v-23.15h-3.115Z" transform="translate(-186.75 -149.6)" fill="#4c27b3"/>
      <path id="Path_38" data-name="Path 38" d="M244.466,175.819v6.98a18.6,18.6,0,0,1,5.374-5.108,13.864,13.864,0,0,1,7.586-2.073v12.758a12.87,12.87,0,0,0-4.572.856,14.14,14.14,0,0,0-4.067,2.376,13.742,13.742,0,0,0-3.014,3.54,9.037,9.037,0,0,0-1.308,4.253v25.978H232V175.819Z" transform="translate(-207.946 -161.786)" fill="#4c27b3"/>
      <path id="Path_39" data-name="Path 39" d="M332.029,200.724a24.318,24.318,0,0,1-1.956,9.7,25.237,25.237,0,0,1-5.257,7.889,24.707,24.707,0,0,1-35.063,0,24.479,24.479,0,0,1-5.225-7.889,24.748,24.748,0,0,1-1.908-9.7,25.143,25.143,0,0,1,7.112-17.744,24.563,24.563,0,0,1,7.835-5.358,24.819,24.819,0,0,1,19.392,0,24.506,24.506,0,0,1,7.857,5.358,25.836,25.836,0,0,1,5.279,7.936A24.605,24.605,0,0,1,332.029,200.724Zm-12.657,0a12.475,12.475,0,0,0-7.389-11.4,11.409,11.409,0,0,0-4.673-.957,11.748,11.748,0,0,0-4.72.957,12.365,12.365,0,0,0-7.442,11.376,11.9,11.9,0,0,0,.957,4.752,12.274,12.274,0,0,0,6.485,6.533,11.663,11.663,0,0,0,4.72.962,11.328,11.328,0,0,0,4.673-.962,12.407,12.407,0,0,0,6.453-6.507A11.9,11.9,0,0,0,319.372,200.724Z" transform="translate(-231.657 -161.802)" fill="#4c27b3"/>
      <path id="Path_40" data-name="Path 40" d="M427.765,200.715a24.319,24.319,0,0,1-1.956,9.7,24.7,24.7,0,0,1-32.485,13.194,24.985,24.985,0,0,1-7.835-5.316,24.48,24.48,0,0,1-5.225-7.889,24.755,24.755,0,0,1-1.914-9.7,25.18,25.18,0,0,1,7.139-17.744,24.506,24.506,0,0,1,7.835-5.358,24.82,24.82,0,0,1,19.392,0,24.566,24.566,0,0,1,7.835,5.358,25.835,25.835,0,0,1,5.279,7.936A24.605,24.605,0,0,1,427.765,200.715Zm-12.657,0a12.475,12.475,0,0,0-7.389-11.4,11.408,11.408,0,0,0-4.673-.957,11.748,11.748,0,0,0-4.72.957,12.326,12.326,0,0,0-3.87,2.658,12.461,12.461,0,0,0-3.567,8.723,11.9,11.9,0,0,0,.957,4.752,12.274,12.274,0,0,0,6.48,6.528,11.663,11.663,0,0,0,4.72.962,11.329,11.329,0,0,0,4.673-.962,12.407,12.407,0,0,0,6.432-6.517A11.9,11.9,0,0,0,415.108,200.715Z" transform="translate(-276.499 -161.793)" fill="#4c27b3"/>
    </g>
    <g id="Group_20" data-name="Group 20" transform="translate(260 140.827)">
      <path id="Path_41" data-name="Path 41" d="M364.054,311.384a22.885,22.885,0,0,1,1.468-3.874,9.471,9.471,0,0,0,.324-2.978q0-5.368-6.349-11.162l-.486-.435a3.689,3.689,0,0,1-.853.111,1.075,1.075,0,0,1-1.007-.478,1.825,1.825,0,0,1-.35-.853c0-.2.853-.486,2.62-.785q13.5-1.434,13.748-1.442s.572-1.348,1.707-4.079c1.22-2.953,1.818-4.881,1.818-5.752,0-.247-.068-.384-.188-.435a4.32,4.32,0,0,0-1.28-.137q-1.894,0-7.911.555c-4.011.384-6.716.657-8.158.853a3.684,3.684,0,0,1-1.51-.23.93.93,0,0,1-.572-.853.461.461,0,0,1,.2-.393,16.333,16.333,0,0,1,2.936-.777c4.028-.213,7.194-.367,9.489-.529s3.917-.23,4.881-.23c2.287,0,3.482.981,3.576,2.978a8.81,8.81,0,0,1-.623,2.842c-.529,1.442-1.331,3.482-2.432,6.1,1.707,0,2.5.751,2.5,2.219,0,.3-.111.461-.341.461a1.391,1.391,0,0,1-.9-.555.853.853,0,0,0-.64-.179,10.694,10.694,0,0,0-1.536.111c-.162.393-.666,1.579-1.493,3.6l-2.927,7.066c-2.731,6.554-4.267,9.95-4.676,10.155C364.446,312.118,364.1,311.819,364.054,311.384Zm4.634-11.273q1.408-3.2,2.475-5.777a23.039,23.039,0,0,0,1.075-2.842c-1.579,0-5.316.273-11.162.708l-.341.137q6.085,5.3,6.187,11.87Z" transform="translate(-356.8 -272.038)"/>
      <path id="Path_42" data-name="Path 42" d="M384.383,305.171c0-1.306,2.731-7.723,2.731-9.387-2.27.119-2.27.068-2.27.418s-.435,1.6-.546,2.953c-.3,3.3-2.842,6.989-4.7,6.989a1.989,1.989,0,0,1-1.485-.666,2.97,2.97,0,0,1-.964-2.56c0-3.849,3.618-9.276,5.427-9.276a1.784,1.784,0,0,1,1.169.478l.435.068h1.331a3.055,3.055,0,0,1,2.816,1.152c.5-.785,1.562-2.56,2.475-2.56s2.432,1.749,2.432,2.432c0,.2-.111.393-.324.393-.384,0-1.024-.785-1.51-1.331a12.876,12.876,0,0,0-3.046,5.018,44.684,44.684,0,0,1-2.56,6.878l-.256.094A1.417,1.417,0,0,1,384.383,305.171Zm-4.079-1.425c1.707-1.647,2.389-5.615,2.389-6.229l-.435-.981c-.785.043-3.328,5.12-3.328,7.834a.633.633,0,0,0,.23,0A1.706,1.706,0,0,0,380.3,303.746Z" transform="translate(-359.78 -274.282)"/>
      <path id="Path_43" data-name="Path 43" d="M405.058,304.006c.162-8.662,7.476-22.9,7.493-23.4l-4.267,1.374c-2.62.99-4.429,2.2-4.455,2.961,0,.3.094.248.094.666,0,.23-.162.3-.452.3a1.622,1.622,0,0,1-1.331-1.707c.094-2.961,9.558-5.231,11.179-5.709a32.158,32.158,0,0,1,4.608-.853,17.821,17.821,0,0,1,2.065-.136c2.56.068,5.223.435,7.057,2.748a5.2,5.2,0,0,1,1.126,3.192,6.512,6.512,0,0,1-.922,3.064c-2.287,4.173-9.711,9.95-13.176,12.519,3.32,0,5.12.273,5.18,2.27-.068,2.176-4.335,6.486-7.885,8a8.632,8.632,0,0,1-1.835.41C406.227,309.757,405.058,307.376,405.058,304.006Zm3.738,4.267c3.183-.367,7.911-4.787,8.534-7.561v-.043c0-.137-.3-.162-.708-.162h-.393a10.73,10.73,0,0,0-1.459.094c-3.507.41-6.554,2.816-7.134,2.842a5.424,5.424,0,0,1-.853-.256c-.043,0-.068.3-.068,1.1a10.825,10.825,0,0,0,.068,1.442c.256,2.091.623,2.56,1.425,2.56Zm-.068-7.68c6.161-4.42,17.46-12.6,17.648-17.827v-.529c-.273-2.313-2.91-3.029-5.82-3.072a16.154,16.154,0,0,0-5.12.734c0,.23-1.348,4.77-1.4,5.641,0,.111,0,.111.094.162a1.373,1.373,0,0,1,.922.981c0,.367-.418.5-1.22.546s-1.237-.777-1.417-1.707c-4.4,10.172-5.393,15.361-5.436,16.154v.068a12.878,12.878,0,0,0,1.749-1.152Z" transform="translate(-363.448 -277.5)"/>
      <path id="Path_44" data-name="Path 44" d="M425,302.566a12.041,12.041,0,0,1,.922-4.378c.384-1.007,1.6-3.9,2.057-3.968h.137a1.067,1.067,0,0,1,1.1.854c0,.324-.179.666-.179.99v.043c0,.341-.119.529-.324.555a14.325,14.325,0,0,0-1.758,4.531,14.808,14.808,0,0,0-.162,1.707v.23a40.507,40.507,0,0,0,4.267-6.187c1.024-1.886,1.485-2.312,2.014-2.338a1.3,1.3,0,0,1,1.143.8v.043a2.918,2.918,0,0,1-.341.853c-1.033,2.2-1.86,7.928-1.971,8.141l-.393.154h-.068c-.529,0-1.254-.452-1.28-.853a19.987,19.987,0,0,1,.23-2.023c-.188.051-2.705,3.234-3.26,3.328C426.015,305.04,425,304.742,425,302.566Z" transform="translate(-366.801 -274.493)"/>
      <path id="Path_45" data-name="Path 45" d="M433.384,303.616c-.273-.12-.614-.5-.614-.64s.137-.35.572-.35c.572,0,1.707.418,2.313.418s.76-.119.76-.418c0-.777-1.169-2.884-1.169-4.31s.9-4.267,3.115-4.267c1.306,0,2.475.956,2.475,1.468,0,.136-.094.29-.341.29-.41,0-1.075-.452-1.425-.452-.939,0-2.057,2.15-2.057,3.482,0,1.143,1.237,3.115,1.237,4.215,0,.777-.623,1.212-2.108,1.212C434.281,304.188,435.219,304.162,433.384,303.616Z" transform="translate(-367.94 -274.468)"/>
      <path id="Path_46" data-name="Path 46" d="M439.75,302.7a12.6,12.6,0,0,1,2.56-7.424.614.614,0,0,1,.418-.162,1.186,1.186,0,0,1,1.186,1.033c0,.5-.137.64-.367.751-.683.35-1.92,3.559-1.92,6.1,0,1.783.478,1.28.478,1.51s-.316.41-.683.41C440.552,304.919,439.75,304.415,439.75,302.7Zm3.345-9.515a1.8,1.8,0,0,1,1.238-1.485c.5,0,1.195.5,1.195.913s-.666.776-.666,1.058.188.179.188.5-.094.316-.418.316A1.562,1.562,0,0,1,443.1,293.185Z" transform="translate(-368.964 -274.123)"/>
      <path id="Path_47" data-name="Path 47" d="M444.27,305.317a1.451,1.451,0,0,1-1.51-1.416c0-2.663,2.159-7.339,2.867-8.687.3-.572.41-.691.708-.708.461,0,1.374.478,1.425,1.075,0,.137-.094.248-.3.341s-.734,1.169-2.705,6.033c.2,0,4.651-8,5.846-8a1.289,1.289,0,0,1,1.306,1.169c0,1.289-1.707,5.043-1.707,8.295v.214c.043.41.41.64.41.913s-.2.367-.546.367a1.621,1.621,0,0,1-1.51-1.63V302.8c0-2.662.853-4.2,1.143-5.521-.751.137-4.514,7.928-5.248,8.039Z" transform="translate(-369.405 -274.453)"/>
      <path id="Path_48" data-name="Path 48" d="M452.16,301.582c.094-4.267,2.731-7.126,4.881-7.126a1.988,1.988,0,0,1,2.244,2.253,4.139,4.139,0,0,1-4.1,4.267,3.545,3.545,0,0,1-1.1-.179,5.259,5.259,0,0,0-.094,1.118,7.963,7.963,0,0,0,.094,1.382c.162.708.2.751.708.794.76.077,1.425.555,1.425,1.058l-.077.2-.683.12C453.534,305.346,452.16,304.424,452.16,301.582Zm5.12-4.053a5.247,5.247,0,0,0,.213-1.417l-.051-.256c-.9,0-2.859,2.936-3.021,3.6v.162c.418,0,2.509-1.033,2.893-2.091Z" transform="translate(-370.783 -274.525)"/>
      <path id="Path_49" data-name="Path 49" d="M457.163,303.616c-.282-.12-.623-.5-.623-.64s.136-.35.572-.35c.572,0,1.707.418,2.313.418.487,0,.76-.119.76-.418,0-.777-1.169-2.884-1.169-4.31s.9-4.267,3.115-4.267c1.306,0,2.475.956,2.475,1.468,0,.136-.085.29-.341.29-.41,0-1.075-.452-1.417-.452-.939,0-2.065,2.15-2.065,3.482,0,1.143,1.238,3.115,1.238,4.215,0,.777-.623,1.212-2.108,1.212C458.05,304.188,458.989,304.162,457.163,303.616Z" transform="translate(-371.426 -274.468)"/>
      <path id="Path_50" data-name="Path 50" d="M462.474,303.616c-.273-.12-.614-.5-.614-.64s.137-.35.572-.35c.572,0,1.707.418,2.313.418.487,0,.76-.119.76-.418,0-.777-1.169-2.884-1.169-4.31s.9-4.267,3.115-4.267c1.306,0,2.475.956,2.475,1.468,0,.136-.094.29-.341.29-.41,0-1.075-.452-1.425-.452-.939,0-2.057,2.15-2.057,3.482,0,1.143,1.237,3.115,1.237,4.215,0,.777-.623,1.212-2.108,1.212C463.371,304.188,464.309,304.162,462.474,303.616Z" transform="translate(-372.205 -274.468)"/>
    </g>
    <g id="Group_21" data-name="Group 21">
      <path id="Path_51" data-name="Path 51" d="M83.18,149.6H37.974a9.284,9.284,0,0,0-9.284,9.284v6.538H64.158a39.145,39.145,0,0,0-6.2,4.232H28.69v5.782H52.3a38.849,38.849,0,0,0-2.925,4.232H28.69v24.449a9.284,9.284,0,0,0,9.284,9.284H49.611V199.721a33.109,33.109,0,0,1,3.227-14.282,33.8,33.8,0,0,1,3.523-5.8,34.18,34.18,0,0,1,3.8-4.232A33.22,33.22,0,0,1,82.9,166.416h9.559v-7.533A9.284,9.284,0,0,0,83.18,149.6Z" transform="translate(101.31 -83.6)" fill="#4c27b3"/>
      <path id="Path_52" data-name="Path 52" d="M88.821,194.124a30.945,30.945,0,0,0-9.791,10,30.6,30.6,0,0,0-4.459,15.933v12.018h5.792V220.055a24.862,24.862,0,0,1,5.755-15.933,25.174,25.174,0,0,1,6.877-5.782,24.82,24.82,0,0,1,12.33-3.258h8.733V189.3h-8.718a30.564,30.564,0,0,0-16.52,4.824Z" transform="translate(79.7 -102.3)" fill="#4c27b3"/>
      <path id="Path_53" data-name="Path 53" d="M100.417,213.005A22.386,22.386,0,0,0,91.9,230.578v10.379h21.053a9.284,9.284,0,0,0,9.284-9.284V208.16H114.3a22.31,22.31,0,0,0-13.889,4.848Z" transform="translate(71.537 -111.183)" fill="#4c27b3"/>
      <circle id="Ellipse_2" data-name="Ellipse 2" cx="4.01" cy="4.01" r="4.01" transform="translate(177.095 112.18)" fill="none" stroke="#fff" stroke-width="3"/>
    </g>
    <g id="registered_icon" data-name="registered icon" transform="translate(352.31 59.906)">
      <path id="Path_203" data-name="Path 203" d="M145.621,95.379a7.247,7.247,0,1,0,7.249,7.249A7.252,7.252,0,0,0,145.621,95.379Zm0,13.378a6.13,6.13,0,1,1,6.137-6.128A6.13,6.13,0,0,1,145.621,108.757Z" transform="translate(-138.38 -95.38)" fill="#4c27b3"/>
      <path id="Path_204" data-name="Path 204" d="M225.4,164.142a2.015,2.015,0,0,0,.8-.533,2.275,2.275,0,0,0,.07-3,2.191,2.191,0,0,0-1.732-.769h-3.212c-.079,0-.1.018-.1.1q0,1.62,0,3.24v3.258c0,.073.013.1.092.1q.468-.007.935,0c.079,0,.092-.024.092-.1,0-.684,0-1.367,0-2.051,0-.066.014-.085.083-.085q.867.005,1.734,0a.1.1,0,0,1,.111.074c.274.691.551,1.38.824,2.071a.112.112,0,0,0,.121.086c.3,0,.611,0,.916,0,.111,0,.11,0,.068-.106-.283-.719-.568-1.432-.857-2.147C225.314,164.2,225.32,164.173,225.4,164.142Zm-.814-.963c-.347.007-.7,0-1.044,0h-1.125c-.056,0-.076-.011-.076-.073q0-1.042,0-2.086c0-.044,0-.071.061-.071.747,0,1.494-.008,2.24.009a1.078,1.078,0,0,1,1.034,1.257A1.065,1.065,0,0,1,224.59,163.179Z" transform="translate(-216.215 -155.939)" fill="#4c27b3"/>
    </g>
  </g>
</svg>
