<svg xmlns="http://www.w3.org/2000/svg" width="72.801" height="72.801" viewBox="0 0 72.801 72.801">
  <path id="Inventory_icon" data-name="Inventory icon" d="M8237.183,19351.8v-7.047h-10.845l-6.246-3.123a3.073,3.073,0,0,1,0-5.5l6.246-3.123h10.845v-4.7h-24.662a3.53,3.53,0,0,1-3.521-3.521v-42.273a3.526,3.526,0,0,1,3.521-3.52h49.319a3.524,3.524,0,0,1,3.521,3.52v19.961h7.047v30.529h3.521a5.872,5.872,0,0,1,0,11.744h-3.521v7.047Zm2.346-2.352h30.529v-4.7h-30.529Zm35.226-7.047h1.176a3.521,3.521,0,1,0,0-7.041h-1.176Zm-4.7,0h2.351v-7.041h-2.351Zm-42.272,0h39.927v-2.346h-39.927Zm-6.644-4.172a.732.732,0,0,0,0,1.3l4.3,2.146v-5.6Zm6.644-.523h39.927v-2.346h-39.927Zm11.743-4.7h30.529v-28.178h-30.529Zm-28.178-50.49v42.273a1.17,1.17,0,0,0,1.17,1.17h24.662v-23.482h25.828v-19.961a1.175,1.175,0,0,0-1.171-1.174h-15.265v11.742h-18.79v-11.742h-15.265A1.175,1.175,0,0,0,8211.351,19282.521Zm18.785,8.223h14.089v-9.4h-14.089Zm35.226,37.572v-2.352h2.351v2.352Zm-23.482,0v-2.352h21.132v2.352Zm0-4.7v-2.346h25.828v2.346Zm-16.439,0v-2.346h2.346v2.346Zm-11.743,0v-2.346h9.393v2.346Zm28.183-4.7v-2.352h25.828v2.352Zm-28.183,0v-2.352h14.089v2.352Zm32.879-4.7v-2.352h21.137v2.352Zm-4.7,0v-2.352h2.346v2.352Zm0-4.7v-2.346h25.828v2.346Z" transform="translate(-8209 -19279.002)" fill="#4c27b3"/>
</svg>
