<svg id="inventroo_logo" data-name="inventroo logo" xmlns="http://www.w3.org/2000/svg" width="378.343" height="64.37" viewBox="0 0 378.343 64.37">
  <rect id="Rectangle_1330" data-name="Rectangle 1330" width="14.45" height="44.12" transform="translate(0 18.98)" fill="#2b2b2b"/>
  <rect id="Rectangle_1331" data-name="Rectangle 1331" width="14.45" height="11.05" transform="translate(0 2.4)" fill="#2b2b2b"/>
  <path id="Path_796" data-name="Path 796" d="M61.07,23.86a12.539,12.539,0,0,0-4.76-4.38,17.912,17.912,0,0,0-8.71-1.79,16.417,16.417,0,0,0-3.99.51,19.08,19.08,0,0,0-3.91,1.44,15.6,15.6,0,0,0-3.4,2.29,13.229,13.229,0,0,0-2.55,3.06h-.17V18.95H19.55V63.09H34V39.03a13.1,13.1,0,0,1,.47-3.48,9.627,9.627,0,0,1,1.4-3.02,6.9,6.9,0,0,1,2.42-2.12,7.276,7.276,0,0,1,3.53-.81,7.665,7.665,0,0,1,4.46,1.06,5.836,5.836,0,0,1,2.12,2.76,10.98,10.98,0,0,1,.64,3.91V63.08H63.49V34.77a38.532,38.532,0,0,0-.42-5.35,14.58,14.58,0,0,0-2-5.57Z" fill="#2b2b2b"/>
  <path id="Path_797" data-name="Path 797" d="M96.05,18.98,87.89,48.13h-.17L79.64,18.98H64.6L79.3,63.09H95.96l14.79-44.11Z" fill="#2b2b2b"/>
  <path id="Path_798" data-name="Path 798" d="M149.6,25.52a20.05,20.05,0,0,0-7.31-5.74,24.081,24.081,0,0,0-10.37-2.08,24.572,24.572,0,0,0-16.79,6.54,21.987,21.987,0,0,0-5.14,7.31,22.9,22.9,0,0,0-1.87,9.35,26.63,26.63,0,0,0,1.74,9.9,20.415,20.415,0,0,0,4.93,7.4,21.19,21.19,0,0,0,7.65,4.59,29.316,29.316,0,0,0,9.82,1.57,30.327,30.327,0,0,0,7.18-.85,22.613,22.613,0,0,0,6.46-2.63,19.191,19.191,0,0,0,5.1-4.55,18,18,0,0,0,3.19-6.59H140.68a7.041,7.041,0,0,1-3.32,3.66,10.585,10.585,0,0,1-4.93,1.19,9.321,9.321,0,0,1-7.14-2.72,10.855,10.855,0,0,1-2.72-7.31h32.38a33.532,33.532,0,0,0-1.1-10.5,23.87,23.87,0,0,0-4.25-8.54ZM122.57,36.48a11.813,11.813,0,0,1,3.1-6.54,8.407,8.407,0,0,1,6.25-2.47,7.624,7.624,0,0,1,6.04,2.64,9.85,9.85,0,0,1,2.55,6.38H122.57Z" fill="#2b2b2b"/>
  <path id="Path_799" data-name="Path 799" d="M198.6,23.86a12.54,12.54,0,0,0-4.76-4.38,17.912,17.912,0,0,0-8.71-1.79,16.417,16.417,0,0,0-3.99.51,19.08,19.08,0,0,0-3.91,1.44,15.6,15.6,0,0,0-3.4,2.29,13.229,13.229,0,0,0-2.55,3.06h-.17V18.95H157.08V63.09h14.45V39.03a13.1,13.1,0,0,1,.47-3.48,9.627,9.627,0,0,1,1.4-3.02,6.9,6.9,0,0,1,2.42-2.12,7.276,7.276,0,0,1,3.53-.81,7.665,7.665,0,0,1,4.46,1.06,5.836,5.836,0,0,1,2.12,2.76,10.98,10.98,0,0,1,.64,3.91V63.08h14.45V34.77a38.532,38.532,0,0,0-.42-5.35,14.58,14.58,0,0,0-2-5.57Z" fill="#2b2b2b"/>
  <path id="Path_800" data-name="Path 800" d="M224.91,5.63H210.46V18.97h-7.31v9.35h7.31V47.96a34.564,34.564,0,0,0,.68,7.48,9.751,9.751,0,0,0,2.42,4.76,9.867,9.867,0,0,0,4.76,2.55,31.681,31.681,0,0,0,7.61.76c1.3,0,2.62-.06,3.95-.17s2.65-.2,3.95-.25V52.47c-.62,0-1.25.03-1.87.08s-1.25.08-1.87.08a7.524,7.524,0,0,1-3.78-.81c-.94-.54-1.4-1.69-1.4-3.44V28.33h8.92V18.98h-8.92Z" fill="#2b2b2b"/>
  <path id="Path_801" data-name="Path 801" d="M269.95,18.47a16.59,16.59,0,0,0-1.7-.25,16.121,16.121,0,0,0-1.7-.08,15.073,15.073,0,0,0-8.16,2.17,12.5,12.5,0,0,0-5.1,6.42h-.17V18.99H239.1v44.1h14.45V41.24a11.759,11.759,0,0,1,.68-3.95,9.3,9.3,0,0,1,2.08-3.36,10.469,10.469,0,0,1,3.4-2.3,11.915,11.915,0,0,1,4.72-.85,17.554,17.554,0,0,1,2.76.21,20.9,20.9,0,0,1,2.76.64V18.46Z" fill="#2b2b2b"/>
  <path id="Path_802" data-name="Path 802" d="M309.44,24.42a22.168,22.168,0,0,0-7.4-4.93,25.524,25.524,0,0,0-18.78,0,21.756,21.756,0,0,0-7.35,4.93,22.327,22.327,0,0,0-4.76,7.44,25.988,25.988,0,0,0,0,18.49,21.646,21.646,0,0,0,12.11,12.24,25.658,25.658,0,0,0,18.78,0,22.634,22.634,0,0,0,7.4-4.89,21.583,21.583,0,0,0,4.8-7.35,24.777,24.777,0,0,0,1.7-9.27,24.627,24.627,0,0,0-1.7-9.22,21.965,21.965,0,0,0-4.8-7.44Zm-8.37,20.95a12.523,12.523,0,0,1-1.45,3.95,8.373,8.373,0,0,1-2.72,2.89,7.61,7.61,0,0,1-4.25,1.1,7.507,7.507,0,0,1-4.21-1.1,8.451,8.451,0,0,1-2.68-2.89,13.13,13.13,0,0,1-1.45-3.95,22.119,22.119,0,0,1,0-8.58,12.866,12.866,0,0,1,1.45-3.95,8.765,8.765,0,0,1,2.68-2.93,7.188,7.188,0,0,1,4.21-1.15,7.386,7.386,0,0,1,4.25,1.15,8.677,8.677,0,0,1,2.72,2.93,13.13,13.13,0,0,1,1.45,3.95,22.119,22.119,0,0,1,0,8.58Z" fill="#2b2b2b"/>
  <path id="Path_803" data-name="Path 803" d="M357.97,24.42a22.168,22.168,0,0,0-7.4-4.93,25.524,25.524,0,0,0-18.78,0,21.756,21.756,0,0,0-7.35,4.93,22.327,22.327,0,0,0-4.76,7.44,25.988,25.988,0,0,0,0,18.49,21.646,21.646,0,0,0,12.11,12.24,25.658,25.658,0,0,0,18.78,0,22.634,22.634,0,0,0,7.4-4.89,21.583,21.583,0,0,0,4.8-7.35,24.777,24.777,0,0,0,1.7-9.27,24.627,24.627,0,0,0-1.7-9.22,21.965,21.965,0,0,0-4.8-7.44ZM349.6,45.37a12.523,12.523,0,0,1-1.45,3.95,8.373,8.373,0,0,1-2.72,2.89,7.61,7.61,0,0,1-4.25,1.1,7.507,7.507,0,0,1-4.21-1.1,8.451,8.451,0,0,1-2.68-2.89,13.13,13.13,0,0,1-1.45-3.95,22.119,22.119,0,0,1,0-8.58,12.866,12.866,0,0,1,1.45-3.95,8.765,8.765,0,0,1,2.68-2.93,7.188,7.188,0,0,1,4.21-1.15,7.386,7.386,0,0,1,4.25,1.15,8.677,8.677,0,0,1,2.72,2.93,13.13,13.13,0,0,1,1.45,3.95,22.119,22.119,0,0,1,0,8.58Z" fill="#2b2b2b"/>
  <path id="Path_804" data-name="Path 804" d="M378.26,7.07a7.791,7.791,0,0,0-1.4-3.54,8.247,8.247,0,0,0-2.39-2.28A8.446,8.446,0,0,0,371.5.09c-.29-.05-.59-.05-.88-.09h-.06a.526.526,0,0,1-.39,0h-.26a.526.526,0,0,1-.39,0h-.13a9.245,9.245,0,0,0-.92.11,8.365,8.365,0,0,0-6.66,7.03c-.02.16-.01.33-.04.49V8.92c.04.24.03.48.07.72a8.169,8.169,0,0,0,1.23,3.15,8.267,8.267,0,0,0,2.73,2.63,7.781,7.781,0,0,0,3.7,1.13,8.549,8.549,0,0,0,3.1-.37,8.3,8.3,0,0,0,5.66-9.12Zm-8.23,8.41a7.21,7.21,0,1,1,7.22-7.21A7.2,7.2,0,0,1,370.03,15.48Z" fill="#2b2b2b"/>
  <path id="Path_805" data-name="Path 805" d="M372.87,11.62a8.692,8.692,0,0,1-1.46-1.25,10.26,10.26,0,0,0-1.04-.94c-.17-.13-.35-.26-.53-.39V9.01h.48a3.758,3.758,0,0,0,1.63-.45,2.412,2.412,0,0,0,.43-3.82,3.186,3.186,0,0,0-2.12-.79c-.92-.03-1.84-.01-2.76-.01a.519.519,0,0,0-.54.51v7.5a1.475,1.475,0,0,0,.01.21.523.523,0,0,0,1.04-.11V9.28a8.042,8.042,0,0,1,1.39.75,10.622,10.622,0,0,1,1.54,1.38,8.528,8.528,0,0,0,1.32,1.08.524.524,0,0,0,.72-.06.518.518,0,0,0-.11-.81Zm-4.72-3.66c-.12,0-.14-.03-.14-.15V5.13c0-.1.02-.14.13-.14.68,0,1.36,0,2.03.01a2.277,2.277,0,0,1,1.27.35,1.265,1.265,0,0,1,.61,1.26,1.306,1.306,0,0,1-.88,1.13,3.161,3.161,0,0,1-1.22.2h-1.81Z" fill="#2b2b2b"/>
</svg>
