<svg xmlns="http://www.w3.org/2000/svg" width="78.8" height="62.094" viewBox="0 0 78.8 62.094">
  <path id="Multiple_outlet_icon" data-name="Multiple outlet icon" d="M8225.644,18839.535a4.858,4.858,0,0,1-4.855-4.85v-4.166a7.627,7.627,0,0,1-2.1.289,7.72,7.72,0,0,1-5.627-2.445,7.678,7.678,0,0,1,5.131-12.9,7.723,7.723,0,0,1,2.6.279V18782.3a4.862,4.862,0,0,1,4.855-4.852h21.441a4.849,4.849,0,0,0,6.629-.01h21.442a4.856,4.856,0,0,1,4.855,4.852v4.16a7.722,7.722,0,0,1,7.726,2.16,7.6,7.6,0,0,1,2.043,5.783,7.689,7.689,0,0,1-7.173,7.115,7.837,7.837,0,0,1-2.6-.277v33.436a4.855,4.855,0,0,1-4.855,4.852h-21.442a4.844,4.844,0,0,0-6.629.014Zm-2.511-12.77a1.6,1.6,0,0,1,.732,1.365v6.555a1.777,1.777,0,0,0,1.778,1.771h21.441a1.777,1.777,0,0,0,1.778-1.771v-24.652h-7.782a1.54,1.54,0,0,1-1.494-1.164,1.589,1.589,0,0,1,.35-1.4,4.609,4.609,0,0,0-6.719-6.279,4.59,4.59,0,0,0-.388,6.318v0a1.482,1.482,0,0,1-.95,2.506c-.142.01-.231.02-.231.02h-7.783v8.146a1.535,1.535,0,0,1-1.215,1.5,1.582,1.582,0,0,1-1.263-.283,4.6,4.6,0,1,0,.028,7.443,1.552,1.552,0,0,1,1.717-.076Zm28.809,7.9a1.774,1.774,0,0,0,1.772,1.773h21.442a1.775,1.775,0,0,0,1.777-1.773v-24.646h-5.2a7.585,7.585,0,0,1,.388,2.4,7.69,7.69,0,0,1-2.444,5.611,7.6,7.6,0,0,1-5.233,2.066c-.185,0-.374,0-.559-.02a7.679,7.679,0,0,1-6.756-10.061h-5.191Zm-1.437-33.705a1.572,1.572,0,0,1,1.438,1.588v4.393h7.787a1.644,1.644,0,0,1,1.225,2.439c-.033.057-.053.086-.053.086a4.618,4.618,0,1,0,7.073,0,1.612,1.612,0,0,1,1.163-2.525h7.8v-8.146a1.542,1.542,0,0,1,1.22-1.508,1.584,1.584,0,0,1,1.258.287,4.548,4.548,0,0,0,3,.861,4.6,4.6,0,1,0-3.031-8.3,1.537,1.537,0,0,1-1.915-.076,1.567,1.567,0,0,1-.534-1.2v-6.566a1.775,1.775,0,0,0-1.777-1.773h-21.442a1.774,1.774,0,0,0-1.772,1.773v6.293a1.542,1.542,0,0,1-1.646,1.531,1.567,1.567,0,0,1-1.433-1.588v-6.227a1.781,1.781,0,0,0-1.778-1.773h-21.441a1.781,1.781,0,0,0-1.778,1.773v24.652h5.2a7.687,7.687,0,1,1,14.975-2.9,7.756,7.756,0,0,1-.369,2.9h5.2v-4.459a1.532,1.532,0,0,1,1.532-1.535A1,1,0,0,1,8250.5,18800.965Zm-6.17.363a1.349,1.349,0,1,1,1.271.895A1.364,1.364,0,0,1,8244.334,18801.328Z" transform="translate(-8211 -18777.441)" fill="#4c27b3"/>
</svg>
