<svg id="paytroo_logo" data-name="paytroo logo" xmlns="http://www.w3.org/2000/svg" width="314.632" height="77.83" viewBox="0 0 314.632 77.83">
  <path id="Path_806" data-name="Path 806" d="M41.14,25.12a17.726,17.726,0,0,0-6.12-5.44,18.367,18.367,0,0,0-8.92-2.04,13.891,13.891,0,0,0-12.16,6.38h-.17v-5.1H0V77.83H14.45V58.28h.17q4.5,6.03,12.58,6.04a16.95,16.95,0,0,0,8.16-1.87,17.571,17.571,0,0,0,5.82-5.01,22.2,22.2,0,0,0,3.49-7.14,30.2,30.2,0,0,0,1.15-8.33,35.3,35.3,0,0,0-1.15-9.05,24.142,24.142,0,0,0-3.53-7.78ZM30.9,45.05a14.252,14.252,0,0,1-1.49,4.08,8.743,8.743,0,0,1-2.68,2.98,6.946,6.946,0,0,1-4.04,1.15q-4.935,0-6.84-3.49a19.3,19.3,0,0,1-1.91-9.26,16.463,16.463,0,0,1,.85-5.7,11,11,0,0,1,2.12-3.66,7.106,7.106,0,0,1,2.85-1.91,9.037,9.037,0,0,1,3.02-.55,7.325,7.325,0,0,1,4.04,1.06,8.32,8.32,0,0,1,2.68,2.76,12.03,12.03,0,0,1,1.45,3.78,21.242,21.242,0,0,1,.42,4.21,22.453,22.453,0,0,1-.47,4.55Z" fill="#2b2b2b"/>
  <path id="Path_807" data-name="Path 807" d="M91.04,51.72V32.43a14.552,14.552,0,0,0-1.74-7.57,12.336,12.336,0,0,0-4.63-4.5,19.167,19.167,0,0,0-6.59-2.17,51.149,51.149,0,0,0-7.61-.55,39.974,39.974,0,0,0-7.44.68,21.06,21.06,0,0,0-6.59,2.38,13.815,13.815,0,0,0-4.84,4.59,14.058,14.058,0,0,0-2.04,7.23H63.07Q64.09,27,70.3,26.99a11.518,11.518,0,0,1,2.34.25,8.132,8.132,0,0,1,2.25.81,5.573,5.573,0,0,1,1.7,1.4,3.325,3.325,0,0,1,.68,2.12,3.539,3.539,0,0,1-.98,2.85,6.753,6.753,0,0,1-2.85,1.23q-2.55.51-5.4.85t-5.69.85a41.016,41.016,0,0,0-5.48,1.36,15.822,15.822,0,0,0-4.67,2.38A10.833,10.833,0,0,0,48.97,45a13.3,13.3,0,0,0-1.19,5.95,13.66,13.66,0,0,0,1.15,5.91,11.51,11.51,0,0,0,3.19,4.17,13.483,13.483,0,0,0,4.8,2.46,20.894,20.894,0,0,0,5.91.81,25.8,25.8,0,0,0,7.86-1.23,15.412,15.412,0,0,0,6.67-4.21c.11.74.21,1.45.3,2.12a7.739,7.739,0,0,0,.55,2.04H92.75a15.163,15.163,0,0,1-1.49-5.57c-.14-1.96-.21-3.87-.21-5.74Zm-15.64.59q-1.95,3.06-7.14,3.06a7.657,7.657,0,0,1-4.25-1.15,4.248,4.248,0,0,1-1.79-3.87,4.246,4.246,0,0,1,1.74-3.83,12.529,12.529,0,0,1,4.21-1.78,38.939,38.939,0,0,1,4.89-1.06,10.718,10.718,0,0,0,4.04-1.32q.255,6.885-1.7,9.94Z" fill="#2b2b2b"/>
  <path id="Path_808" data-name="Path 808" d="M115.51,47.64h-.17l-8.33-28.73H91.71L103.1,49.6c.23.62.54,1.46.94,2.51s.79,2.14,1.19,3.27.75,2.24,1.06,3.31a9.853,9.853,0,0,1,.47,2.46,4.349,4.349,0,0,1-1.66,3.61,6.418,6.418,0,0,1-4.12,1.32H95.97V77.81h6.8a54.606,54.606,0,0,0,6.5-.34,14.669,14.669,0,0,0,5.06-1.49,12.341,12.341,0,0,0,3.91-3.27,19.9,19.9,0,0,0,2.98-5.78L138.64,18.9H123.85l-8.33,28.73Z" fill="#2b2b2b"/>
  <path id="Path_809" data-name="Path 809" d="M160.48,5.57H146.03V18.91h-7.31v9.35h7.31V47.89a34.564,34.564,0,0,0,.68,7.48,9.751,9.751,0,0,0,2.42,4.76,9.867,9.867,0,0,0,4.76,2.55,31.681,31.681,0,0,0,7.61.76c1.3,0,2.62-.06,3.95-.17s2.65-.2,3.95-.25V52.4c-.62,0-1.25.03-1.87.08s-1.25.08-1.87.08a7.524,7.524,0,0,1-3.78-.81c-.94-.54-1.4-1.68-1.4-3.44V28.26h8.92V18.91h-8.92Z" fill="#2b2b2b"/>
  <path id="Path_810" data-name="Path 810" d="M205.53,18.4a16.59,16.59,0,0,0-1.7-.25,16.12,16.12,0,0,0-1.7-.08,15.073,15.073,0,0,0-8.16,2.17,12.5,12.5,0,0,0-5.1,6.42h-.17V18.92H174.68V63.03h14.45V41.19a11.759,11.759,0,0,1,.68-3.95,9.218,9.218,0,0,1,2.08-3.36,10.469,10.469,0,0,1,3.4-2.3,11.915,11.915,0,0,1,4.72-.85,17.554,17.554,0,0,1,2.76.21,20.9,20.9,0,0,1,2.76.64V18.41Z" fill="#2b2b2b"/>
  <path id="Path_811" data-name="Path 811" d="M245.01,24.35a22.168,22.168,0,0,0-7.4-4.93,25.524,25.524,0,0,0-18.78,0,21.756,21.756,0,0,0-7.35,4.93,22.327,22.327,0,0,0-4.76,7.44,25.961,25.961,0,0,0,0,18.48,21.836,21.836,0,0,0,4.76,7.35,22.1,22.1,0,0,0,7.35,4.89,25.524,25.524,0,0,0,18.78,0,22.634,22.634,0,0,0,7.4-4.89,21.583,21.583,0,0,0,4.8-7.35,24.762,24.762,0,0,0,1.7-9.26,24.665,24.665,0,0,0-1.7-9.22A21.964,21.964,0,0,0,245.01,24.35ZM236.64,45.3a12.523,12.523,0,0,1-1.45,3.95,8.373,8.373,0,0,1-2.72,2.89,7.612,7.612,0,0,1-4.25,1.11,7.429,7.429,0,0,1-4.21-1.11,8.451,8.451,0,0,1-2.68-2.89,13.13,13.13,0,0,1-1.45-3.95,22.12,22.12,0,0,1,0-8.58,12.867,12.867,0,0,1,1.45-3.95,8.765,8.765,0,0,1,2.68-2.93,7.262,7.262,0,0,1,4.21-1.15,7.386,7.386,0,0,1,4.25,1.15,8.677,8.677,0,0,1,2.72,2.93,13.13,13.13,0,0,1,1.45,3.95,22.12,22.12,0,0,1,0,8.58Z" fill="#2b2b2b"/>
  <path id="Path_812" data-name="Path 812" d="M293.54,24.35a22.168,22.168,0,0,0-7.4-4.93,25.524,25.524,0,0,0-18.78,0,21.756,21.756,0,0,0-7.35,4.93,22.326,22.326,0,0,0-4.76,7.44,25.961,25.961,0,0,0,0,18.48,21.835,21.835,0,0,0,4.76,7.35,22.1,22.1,0,0,0,7.35,4.89,25.524,25.524,0,0,0,18.78,0,22.634,22.634,0,0,0,7.4-4.89,21.583,21.583,0,0,0,4.8-7.35,24.762,24.762,0,0,0,1.7-9.26,24.664,24.664,0,0,0-1.7-9.22A21.965,21.965,0,0,0,293.54,24.35ZM285.17,45.3a12.523,12.523,0,0,1-1.45,3.95A8.373,8.373,0,0,1,281,52.14a7.612,7.612,0,0,1-4.25,1.11,7.429,7.429,0,0,1-4.21-1.11,8.451,8.451,0,0,1-2.68-2.89,13.13,13.13,0,0,1-1.45-3.95,22.119,22.119,0,0,1,0-8.58,12.866,12.866,0,0,1,1.45-3.95,8.765,8.765,0,0,1,2.68-2.93,7.262,7.262,0,0,1,4.21-1.15A7.386,7.386,0,0,1,281,29.84a8.677,8.677,0,0,1,2.72,2.93,13.13,13.13,0,0,1,1.45,3.95,22.119,22.119,0,0,1,0,8.58Z" fill="#2b2b2b"/>
  <path id="Path_813" data-name="Path 813" d="M314.55,7.07a7.791,7.791,0,0,0-1.4-3.54,8.247,8.247,0,0,0-2.39-2.28A8.446,8.446,0,0,0,307.79.09c-.29-.05-.59-.05-.88-.09h-.06a.526.526,0,0,1-.39,0h-.26a.526.526,0,0,1-.39,0h-.13a9.245,9.245,0,0,0-.92.11,8.365,8.365,0,0,0-6.66,7.03c-.02.16-.01.33-.04.49V8.92c.04.24.03.48.07.72a8.169,8.169,0,0,0,1.23,3.15,8.267,8.267,0,0,0,2.73,2.63,7.781,7.781,0,0,0,3.7,1.13,8.549,8.549,0,0,0,3.1-.37,8.3,8.3,0,0,0,5.66-9.12Zm-8.23,8.41a7.21,7.21,0,1,1,7.22-7.21A7.2,7.2,0,0,1,306.32,15.48Z" fill="#2b2b2b"/>
  <path id="Path_814" data-name="Path 814" d="M309.16,11.62a8.692,8.692,0,0,1-1.46-1.25,10.26,10.26,0,0,0-1.04-.94c-.17-.13-.35-.26-.53-.39V9.01h.48a3.758,3.758,0,0,0,1.63-.45,2.412,2.412,0,0,0,.43-3.82,3.186,3.186,0,0,0-2.12-.79c-.92-.03-1.84-.01-2.76-.01a.519.519,0,0,0-.54.51v7.5a1.475,1.475,0,0,0,.01.21.523.523,0,0,0,1.04-.11V9.28a8.042,8.042,0,0,1,1.39.75,10.622,10.622,0,0,1,1.54,1.38,8.528,8.528,0,0,0,1.32,1.08.524.524,0,0,0,.72-.06.518.518,0,0,0-.11-.81Zm-4.72-3.66c-.12,0-.14-.03-.14-.15V5.13c0-.1.02-.14.13-.14.68,0,1.36,0,2.03.01a2.277,2.277,0,0,1,1.27.35,1.265,1.265,0,0,1,.61,1.26,1.306,1.306,0,0,1-.88,1.13,3.161,3.161,0,0,1-1.22.2h-1.81Z" fill="#2b2b2b"/>
</svg>
