<svg xmlns="http://www.w3.org/2000/svg" width="58.373" height="72.375" viewBox="0 0 58.373 72.375">
  <path id="pie_chart_icon" data-name="pie chart icon" d="M8707.3,18862.375a7.434,7.434,0,0,1-7.3-7.541v-57.293a7.433,7.433,0,0,1,7.3-7.541h43.778a7.431,7.431,0,0,1,7.295,7.541v57.293a7.433,7.433,0,0,1-7.295,7.541Zm-4.379-64.834v57.293a4.46,4.46,0,0,0,4.379,4.525h43.778a4.459,4.459,0,0,0,4.374-4.525v-57.293a4.459,4.459,0,0,0-4.374-4.527H8707.3A4.461,4.461,0,0,0,8702.92,18797.541Zm6.571,56.857a1.34,1.34,0,1,1,0-2.656h39.39a1.34,1.34,0,1,1,0,2.656Zm33.34-10.211a1.328,1.328,0,0,1,0-2.656h5.316a1.328,1.328,0,1,1,0,2.656Zm-34.855-14.732a13.3,13.3,0,0,1,13.288-13.287c.149,0,.3,0,.447.008a1.326,1.326,0,0,1,2.131.242,13.291,13.291,0,1,1-15.866,13.037Zm13.288,10.633a10.633,10.633,0,0,0,2.751-20.9v9.855a1.316,1.316,0,0,1-.389.938l-8.294,8.3A10.568,10.568,0,0,0,8721.264,18840.088Zm-10.632-10.633a10.586,10.586,0,0,0,2.692,7.064l8.034-8.035v-9.66h-.095A10.646,10.646,0,0,0,8710.632,18829.455Zm32.2,5.639a1.328,1.328,0,0,1,0-2.656h5.316a1.328,1.328,0,1,1,0,2.656Zm0-9.094a1.33,1.33,0,0,1,0-2.66h5.316a1.33,1.33,0,0,1,0,2.66Zm0-9.094a1.33,1.33,0,0,1,0-2.66h5.316a1.33,1.33,0,0,1,0,2.66Z" transform="translate(-8699.999 -18790)" fill="#4c27b3"/>
</svg>
