<svg xmlns="http://www.w3.org/2000/svg" width="65.734" height="73" viewBox="0 0 65.734 73">
  <path id="POS_icon" data-name="POS icon" d="M8718.567,19363.25a4.074,4.074,0,0,1-4.067-4.066v-64.865a4.072,4.072,0,0,1,4.067-4.068h36.383a4.069,4.069,0,0,1,4.067,4.068v7.766h17.072a4.148,4.148,0,0,1,4.145,4.145v33.715a4.156,4.156,0,0,1-4.145,4.146h-17.072v15.094a4.071,4.071,0,0,1-4.067,4.066Zm-1.647-68.932v64.865a1.651,1.651,0,0,0,1.647,1.646h36.383a1.648,1.648,0,0,0,1.647-1.646v-64.865a1.65,1.65,0,0,0-1.647-1.648h-36.383A1.653,1.653,0,0,0,8716.92,19294.318Zm56.706,47.346h2.464a1.724,1.724,0,0,0,1.725-1.721v-33.715a1.724,1.724,0,0,0-1.725-1.725h-2.464Zm-4.8,0h2.382v-37.16h-2.382Zm-9.807,0h7.382v-37.16h-7.382Zm-17.7,15.352a1.212,1.212,0,0,1-1.21-1.209v-16.576a1.212,1.212,0,0,1,1.21-1.211h11.153a1.214,1.214,0,0,1,1.21,1.211v16.576a1.214,1.214,0,0,1-1.21,1.209Zm1.21-2.42h8.732v-14.156h-8.732Zm-11.342,2.42a1.209,1.209,0,0,1-1.21-1.209v-5.812a1.214,1.214,0,0,1,1.21-1.211h5.812a1.214,1.214,0,0,1,1.211,1.211v5.813a1.214,1.214,0,0,1-1.211,1.209Zm1.21-2.42h3.392v-3.393h-3.392Zm-11.342,2.42a1.206,1.206,0,0,1-.855-.355,1.192,1.192,0,0,1-.354-.854v-5.812a1.212,1.212,0,0,1,1.21-1.211h5.812a1.212,1.212,0,0,1,1.21,1.211v5.813a1.212,1.212,0,0,1-1.21,1.209Zm1.21-2.42h3.392v-3.393h-3.392Zm8.922-8.344a1.21,1.21,0,0,1-1.21-1.211v-5.811a1.21,1.21,0,0,1,1.21-1.211h5.812a1.214,1.214,0,0,1,1.211,1.211v5.811a1.208,1.208,0,0,1-1.211,1.211Zm1.21-2.42h3.392v-3.393h-3.392Zm-11.342,2.42a1.207,1.207,0,0,1-1.21-1.211v-5.811a1.194,1.194,0,0,1,.354-.855,1.206,1.206,0,0,1,.855-.355h5.812a1.212,1.212,0,0,1,1.21,1.211v5.811a1.207,1.207,0,0,1-1.21,1.211Zm1.21-2.42h3.392v-3.393h-3.392Zm19.054-8.154a1.212,1.212,0,0,1-1.21-1.215v-5.812a1.209,1.209,0,0,1,1.21-1.209h11.153a1.2,1.2,0,0,1,.854.354,1.208,1.208,0,0,1,.355.855v5.813a1.212,1.212,0,0,1-1.21,1.215Zm1.21-2.426h8.732v-3.387h-8.732Zm-11.342,2.426a1.214,1.214,0,0,1-1.21-1.215v-5.812a1.212,1.212,0,0,1,1.21-1.209h5.812a1.21,1.21,0,0,1,1.211,1.209v5.813a1.212,1.212,0,0,1-1.211,1.215Zm1.21-2.426h3.392v-3.387h-3.392Zm-11.342,2.426a1.211,1.211,0,0,1-1.21-1.215v-5.812a1.209,1.209,0,0,1,1.21-1.209h5.812a1.209,1.209,0,0,1,1.21,1.209v5.813a1.211,1.211,0,0,1-1.21,1.215Zm1.21-2.426h3.392v-3.387h-3.392Zm19.054-8.154a1.207,1.207,0,0,1-1.21-1.209v-5.812a1.209,1.209,0,0,1,1.21-1.209h11.153a1.209,1.209,0,0,1,1.21,1.209v5.813a1.207,1.207,0,0,1-1.21,1.209Zm1.21-2.42h8.732v-3.391h-8.732Zm-11.342,2.42a1.209,1.209,0,0,1-1.21-1.209v-5.812a1.212,1.212,0,0,1,1.21-1.209h5.812a1.21,1.21,0,0,1,1.211,1.209v5.813a1.207,1.207,0,0,1-1.211,1.209Zm1.21-2.42h3.392v-3.391h-3.392Zm-11.342,2.42a1.206,1.206,0,0,1-1.21-1.209v-5.812a1.209,1.209,0,0,1,1.21-1.209h5.812a1.209,1.209,0,0,1,1.21,1.209v5.813a1.206,1.206,0,0,1-1.21,1.209Zm1.21-2.42h3.392v-3.391h-3.392Zm-1.21-9.99a1.21,1.21,0,0,1-1.21-1.211v-14.137a1.213,1.213,0,0,1,1.21-1.209h31.417a1.211,1.211,0,0,1,1.21,1.209v14.137a1.207,1.207,0,0,1-1.21,1.211Zm1.215-2.42h28.991v-11.717h-28.991Z" transform="translate(-8714.5 -19290.25)" fill="#4c27b3"/>
</svg>
