<svg id="reception" xmlns="http://www.w3.org/2000/svg" width="100.8" height="100.8" viewBox="0 0 100.8 100.8">
  <path id="Path_205" data-name="Path 205" d="M97.65,178.025H95.384l-2.553-10.214a3.15,3.15,0,0,0-3.056-2.386H78.75V160.7H88.2a3.15,3.15,0,0,0,0-6.3v-1.575a37.85,37.85,0,0,0-34.65-37.668V110.3h4.725a3.15,3.15,0,0,0,0-6.3H42.525a3.15,3.15,0,1,0,0,6.3H47.25v4.857A37.85,37.85,0,0,0,12.6,152.825V154.4a3.15,3.15,0,1,0,0,6.3h9.45v4.725H11.025a3.15,3.15,0,0,0-3.056,2.386L5.415,178.025H3.15a3.15,3.15,0,0,0,0,6.3h94.5a3.15,3.15,0,1,0,0-6.3Zm-78.75-25.2a31.5,31.5,0,0,1,63,0V154.4h-63Zm9.45,7.875h44.1v4.725H28.35ZM11.909,178.025l1.575-6.3H87.315l1.575,6.3Z" transform="translate(0 -83.525)" fill="#4c27b3"/>
  <path id="Path_206" data-name="Path 206" d="M3.15,246.3h6.3a3.15,3.15,0,0,0,0-6.3H3.15a3.15,3.15,0,0,0,0,6.3Z" transform="translate(0 -192.75)" fill="#4c27b3"/>
  <path id="Path_207" data-name="Path 207" d="M451.15,246.3h6.3a3.15,3.15,0,0,0,0-6.3h-6.3a3.15,3.15,0,1,0,0,6.3Z" transform="translate(-359.8 -192.75)" fill="#4c27b3"/>
  <path id="Path_208" data-name="Path 208" d="M75.671,80.126a3.15,3.15,0,0,0,4.455-4.455l-4.455-4.455a3.15,3.15,0,0,0-4.455,4.455Z" transform="translate(-56.454 -56.455)" fill="#4c27b3"/>
  <path id="Path_209" data-name="Path 209" d="M390.214,81.05a3.141,3.141,0,0,0,2.227-.923l4.455-4.455a3.15,3.15,0,1,0-4.455-4.455l-4.455,4.455A3.154,3.154,0,0,0,390.214,81.05Z" transform="translate(-310.858 -56.457)" fill="#4c27b3"/>
  <path id="Path_210" data-name="Path 210" d="M243.15,12.6a3.15,3.15,0,0,0,3.15-3.15V3.15a3.15,3.15,0,0,0-6.3,0v6.3A3.15,3.15,0,0,0,243.15,12.6Z" transform="translate(-192.75)" fill="#4c27b3"/>
</svg>
