<svg xmlns="http://www.w3.org/2000/svg" width="78.007" height="85.681" viewBox="0 0 78.007 85.681">
  <g id="restaurant" transform="translate(-18.908 -11.156)">
    <g id="Group_48" data-name="Group 48" transform="translate(18.908 64.717)">
      <g id="Group_47" data-name="Group 47">
        <path id="Path_94" data-name="Path 94" d="M105.736,329.22a7.774,7.774,0,0,0-10.983,0l-7.947,7.947a7.779,7.779,0,0,0-7.273-5.044h-8.4c-1.192,0-1.719-.653-2.926-1.715a18.128,18.128,0,0,0-25.654,1.715H32.589A2.589,2.589,0,0,0,30,334.712v20.711a2.589,2.589,0,0,0,2.589,2.589H84.711a7.715,7.715,0,0,0,5.491-2.275L105.736,340.2A7.775,7.775,0,0,0,105.736,329.22ZM40.7,352.834H35.178V337.3H40.7Zm61.374-16.292L86.541,352.075a2.606,2.606,0,0,1-1.83.759H45.878v-16.6a12.957,12.957,0,0,1,18.907-1.937c1.312,1.155,3.047,3.006,6.347,3.006h8.4a2.589,2.589,0,0,1,0,5.178H68.957a7.787,7.787,0,0,0-6.293,3.215,2.589,2.589,0,0,0,4.2,3.034,2.6,2.6,0,0,1,2.1-1.072h13.61a2.588,2.588,0,0,0,1.83-.758l14.016-14.016a2.588,2.588,0,1,1,3.66,3.66Z" transform="translate(-30 -325.891)" fill="#4c27b3"/>
      </g>
    </g>
    <g id="Group_50" data-name="Group 50" transform="translate(18.914 11.156)">
      <g id="Group_49" data-name="Group 49" transform="translate(0)">
        <path id="Path_95" data-name="Path 95" d="M75.716,41.438H73.354A34.619,34.619,0,0,0,45.382,9.714a6.856,6.856,0,1,0-12.459,0A34.868,34.868,0,0,0,4.648,41.438H2.285a2.285,2.285,0,0,0,0,4.57H75.716a2.285,2.285,0,0,0,0-4.57ZM39.153,4.57a2.285,2.285,0,1,1-2.285,2.285A2.288,2.288,0,0,1,39.153,4.57ZM9.232,41.438c1.212-15.25,14.421-27.757,29.921-27.757A29.9,29.9,0,0,1,68.775,41.438Z" transform="translate(0)" fill="#4c27b3"/>
      </g>
    </g>
  </g>
</svg>
