<svg id="scantroo_logo" data-name="scantroo logo" xmlns="http://www.w3.org/2000/svg" width="362.412" height="63.61" viewBox="0 0 362.412 63.61">
  <path id="Path_815" data-name="Path 815" d="M40.46,41.23a13.879,13.879,0,0,0-3.44-3.14,15.42,15.42,0,0,0-5.48-2.12q-2.46-.51-5.36-1.02T20.87,33.8a14.408,14.408,0,0,1-4.04-1.66,2.974,2.974,0,0,1-1.62-2.55,2.5,2.5,0,0,1,.64-1.79,4.035,4.035,0,0,1,1.57-1.02,7.567,7.567,0,0,1,2-.43c.71-.06,1.37-.08,2-.08a8.291,8.291,0,0,1,4.59,1.11,4.189,4.189,0,0,1,1.87,3.83H41.22a13.59,13.59,0,0,0-2-7.1,12.988,12.988,0,0,0-4.72-4.33,21.109,21.109,0,0,0-6.42-2.21,39.861,39.861,0,0,0-7.18-.64,38.291,38.291,0,0,0-6.8.64,22.879,22.879,0,0,0-6.54,2.17,13.9,13.9,0,0,0-4.89,4.12A10.768,10.768,0,0,0,.76,30.45c0,3,.64,5.33,1.91,6.97A13.181,13.181,0,0,0,7.6,41.29a27.948,27.948,0,0,0,6.63,2.08q3.615.675,7.01,1.53c.62.17,1.35.34,2.17.51a9.5,9.5,0,0,1,2.29.77,6.129,6.129,0,0,1,1.83,1.32,2.9,2.9,0,0,1,.76,2.08,3.51,3.51,0,0,1-.68,2.17,5.164,5.164,0,0,1-1.7,1.44A8.226,8.226,0,0,1,23.7,54a10.542,10.542,0,0,1-2.21.25,11.259,11.259,0,0,1-2.93-.38,7.051,7.051,0,0,1-2.42-1.15,6.276,6.276,0,0,1-1.74-2.04,6.108,6.108,0,0,1-.64-2.89H0a15.3,15.3,0,0,0,2.08,7.65,14.774,14.774,0,0,0,4.93,4.89,20.291,20.291,0,0,0,6.84,2.55,41.723,41.723,0,0,0,7.73.72,35.061,35.061,0,0,0,7.52-.81,22.045,22.045,0,0,0,6.8-2.63,14.84,14.84,0,0,0,4.93-4.85,13.666,13.666,0,0,0,1.91-7.44,11.588,11.588,0,0,0-.51-3.14,10.639,10.639,0,0,0-1.79-3.49Z" fill="#2b2b2b"/>
  <path id="Path_816" data-name="Path 816" d="M73.1,50.54a7.741,7.741,0,0,1-5.78,2,7.183,7.183,0,0,1-3.91-1.02,8.844,8.844,0,0,1-2.68-2.63,11.033,11.033,0,0,1-1.53-3.7,19.266,19.266,0,0,1-.47-4.21,31.663,31.663,0,0,1,.34-4.63,12.757,12.757,0,0,1,1.32-4.17,8.194,8.194,0,0,1,2.81-3.02,8.892,8.892,0,0,1,4.89-1.19,7.651,7.651,0,0,1,2.64.47,7.03,7.03,0,0,1,2.25,1.32,6.556,6.556,0,0,1,1.57,2.04,5.557,5.557,0,0,1,.59,2.55H89.16a18.916,18.916,0,0,0-2.29-7.61,17.232,17.232,0,0,0-4.84-5.44,21.657,21.657,0,0,0-6.76-3.27,27.746,27.746,0,0,0-7.86-1.1,24.378,24.378,0,0,0-9.6,1.79,21.236,21.236,0,0,0-7.27,4.97,21.65,21.65,0,0,0-4.63,7.61,27.989,27.989,0,0,0-1.62,9.69,23.465,23.465,0,0,0,1.74,9.27,21,21,0,0,0,4.84,7.14,21.7,21.7,0,0,0,7.31,4.59,25.48,25.48,0,0,0,9.22,1.62,26.693,26.693,0,0,0,8.24-1.23,20.816,20.816,0,0,0,6.76-3.61,19.014,19.014,0,0,0,4.8-5.87,21.778,21.778,0,0,0,2.38-7.91H75.55a9.689,9.689,0,0,1-2.46,5.57Z" fill="#2b2b2b"/>
  <path id="Path_817" data-name="Path 817" d="M134.3,51.01V31.72a14.552,14.552,0,0,0-1.74-7.57,12.336,12.336,0,0,0-4.63-4.5,19.167,19.167,0,0,0-6.59-2.17,51.149,51.149,0,0,0-7.61-.55,39.974,39.974,0,0,0-7.44.68,21.06,21.06,0,0,0-6.59,2.38,13.815,13.815,0,0,0-4.84,4.59,14.058,14.058,0,0,0-2.04,7.23h13.51q1.02-5.52,7.23-5.53a11.518,11.518,0,0,1,2.34.25,8.132,8.132,0,0,1,2.25.81,5.573,5.573,0,0,1,1.7,1.4,3.325,3.325,0,0,1,.68,2.12,3.539,3.539,0,0,1-.98,2.85,6.753,6.753,0,0,1-2.85,1.23q-2.55.51-5.4.85t-5.69.85A41.016,41.016,0,0,0,100.13,38a15.822,15.822,0,0,0-4.67,2.38,10.833,10.833,0,0,0-3.23,3.91,13.3,13.3,0,0,0-1.19,5.95,13.66,13.66,0,0,0,1.15,5.91,11.51,11.51,0,0,0,3.19,4.17,13.483,13.483,0,0,0,4.8,2.46,20.894,20.894,0,0,0,5.91.81,25.8,25.8,0,0,0,7.86-1.23,15.412,15.412,0,0,0,6.67-4.21c.11.74.21,1.45.3,2.12a7.739,7.739,0,0,0,.55,2.04h14.54a15.163,15.163,0,0,1-1.49-5.57c-.14-1.96-.21-3.87-.21-5.74Zm-15.64.59q-1.95,3.06-7.14,3.06a7.657,7.657,0,0,1-4.25-1.15,4.248,4.248,0,0,1-1.79-3.87,4.246,4.246,0,0,1,1.74-3.83,12.529,12.529,0,0,1,4.21-1.78,38.939,38.939,0,0,1,4.89-1.06,10.718,10.718,0,0,0,4.04-1.32q.255,6.885-1.7,9.94Z" fill="#2b2b2b"/>
  <path id="Path_818" data-name="Path 818" d="M181.94,23.09a12.54,12.54,0,0,0-4.76-4.38,17.886,17.886,0,0,0-8.71-1.79,16.417,16.417,0,0,0-3.99.51,18.542,18.542,0,0,0-3.91,1.45,15.6,15.6,0,0,0-3.4,2.29,13.229,13.229,0,0,0-2.55,3.06h-.17V18.19H140.42V62.31h14.45V38.26a13.228,13.228,0,0,1,.47-3.49,9.627,9.627,0,0,1,1.4-3.02,7,7,0,0,1,2.42-2.12,7.276,7.276,0,0,1,3.53-.81,7.743,7.743,0,0,1,4.46,1.06,5.836,5.836,0,0,1,2.12,2.76,10.98,10.98,0,0,1,.64,3.91V62.3h14.45V34a38.781,38.781,0,0,0-.42-5.36,14.58,14.58,0,0,0-2-5.57Z" fill="#2b2b2b"/>
  <path id="Path_819" data-name="Path 819" d="M208.25,4.85H193.8V18.19h-7.31v9.35h7.31V47.17a34.564,34.564,0,0,0,.68,7.48,9.751,9.751,0,0,0,2.42,4.76,9.867,9.867,0,0,0,4.76,2.55,31.681,31.681,0,0,0,7.61.76c1.3,0,2.62-.06,3.95-.17s2.65-.2,3.95-.25V51.68c-.62,0-1.25.03-1.87.08s-1.25.08-1.87.08a7.524,7.524,0,0,1-3.78-.81c-.94-.54-1.4-1.68-1.4-3.44V27.55h8.92V18.2h-8.92Z" fill="#2b2b2b"/>
  <path id="Path_820" data-name="Path 820" d="M253.3,17.69a16.59,16.59,0,0,0-1.7-.25,16.12,16.12,0,0,0-1.7-.08,15.073,15.073,0,0,0-8.16,2.17,12.5,12.5,0,0,0-5.1,6.42h-.17V18.21H222.45v44.1H236.9V40.47a11.759,11.759,0,0,1,.68-3.95,9.218,9.218,0,0,1,2.08-3.36,10.469,10.469,0,0,1,3.4-2.3,11.915,11.915,0,0,1,4.72-.85,17.554,17.554,0,0,1,2.76.21,20.9,20.9,0,0,1,2.76.64V17.69Z" fill="#2b2b2b"/>
  <path id="Path_821" data-name="Path 821" d="M292.78,23.64a22.168,22.168,0,0,0-7.4-4.93,25.524,25.524,0,0,0-18.78,0,21.756,21.756,0,0,0-7.35,4.93,22.326,22.326,0,0,0-4.76,7.44,25.961,25.961,0,0,0,0,18.48,21.836,21.836,0,0,0,4.76,7.35,22.1,22.1,0,0,0,7.35,4.89,25.524,25.524,0,0,0,18.78,0,22.634,22.634,0,0,0,7.4-4.89,21.583,21.583,0,0,0,4.8-7.35,24.762,24.762,0,0,0,1.7-9.26,24.664,24.664,0,0,0-1.7-9.22,21.965,21.965,0,0,0-4.8-7.44Zm-8.37,20.95a12.523,12.523,0,0,1-1.45,3.95,8.373,8.373,0,0,1-2.72,2.89,7.612,7.612,0,0,1-4.25,1.11,7.429,7.429,0,0,1-4.21-1.11,8.451,8.451,0,0,1-2.68-2.89,13.13,13.13,0,0,1-1.45-3.95,22.119,22.119,0,0,1,0-8.58,12.866,12.866,0,0,1,1.45-3.95,8.765,8.765,0,0,1,2.68-2.93,7.262,7.262,0,0,1,4.21-1.15,7.386,7.386,0,0,1,4.25,1.15,8.677,8.677,0,0,1,2.72,2.93,13.13,13.13,0,0,1,1.45,3.95,22.119,22.119,0,0,1,0,8.58Z" fill="#2b2b2b"/>
  <path id="Path_822" data-name="Path 822" d="M341.31,23.64a22.168,22.168,0,0,0-7.4-4.93,25.524,25.524,0,0,0-18.78,0,21.756,21.756,0,0,0-7.35,4.93,22.327,22.327,0,0,0-4.76,7.44,25.961,25.961,0,0,0,0,18.48,21.836,21.836,0,0,0,4.76,7.35,22.1,22.1,0,0,0,7.35,4.89,25.524,25.524,0,0,0,18.78,0,22.634,22.634,0,0,0,7.4-4.89,21.583,21.583,0,0,0,4.8-7.35,24.762,24.762,0,0,0,1.7-9.26,24.664,24.664,0,0,0-1.7-9.22,21.965,21.965,0,0,0-4.8-7.44Zm-8.37,20.95a12.523,12.523,0,0,1-1.45,3.95,8.373,8.373,0,0,1-2.72,2.89,7.612,7.612,0,0,1-4.25,1.11,7.429,7.429,0,0,1-4.21-1.11,8.451,8.451,0,0,1-2.68-2.89,13.13,13.13,0,0,1-1.45-3.95,22.119,22.119,0,0,1,0-8.58,12.866,12.866,0,0,1,1.45-3.95,8.765,8.765,0,0,1,2.68-2.93,7.262,7.262,0,0,1,4.21-1.15,7.386,7.386,0,0,1,4.25,1.15,8.677,8.677,0,0,1,2.72,2.93,13.13,13.13,0,0,1,1.45,3.95,22.119,22.119,0,0,1,0,8.58Z" fill="#2b2b2b"/>
  <path id="Path_823" data-name="Path 823" d="M362.33,7.07a7.791,7.791,0,0,0-1.4-3.54,8.247,8.247,0,0,0-2.39-2.28A8.446,8.446,0,0,0,355.57.09c-.29-.05-.59-.05-.88-.09h-.06a.526.526,0,0,1-.39,0h-.26a.526.526,0,0,1-.39,0h-.13a9.245,9.245,0,0,0-.92.11,8.365,8.365,0,0,0-6.66,7.03c-.02.16-.01.33-.04.49V8.92c.04.24.03.48.07.72a8.169,8.169,0,0,0,1.23,3.15,8.267,8.267,0,0,0,2.73,2.63,7.781,7.781,0,0,0,3.7,1.13,8.549,8.549,0,0,0,3.1-.37,8.3,8.3,0,0,0,5.66-9.12Zm-8.23,8.41a7.21,7.21,0,1,1,7.22-7.21A7.2,7.2,0,0,1,354.1,15.48Z" fill="#2b2b2b"/>
  <path id="Path_824" data-name="Path 824" d="M356.94,11.62a8.692,8.692,0,0,1-1.46-1.25,10.26,10.26,0,0,0-1.04-.94c-.17-.13-.35-.26-.53-.39V9.01h.48a3.758,3.758,0,0,0,1.63-.45,2.412,2.412,0,0,0,.43-3.82,3.186,3.186,0,0,0-2.12-.79c-.92-.03-1.84-.01-2.76-.01a.519.519,0,0,0-.54.51v7.5a1.475,1.475,0,0,0,.01.21.523.523,0,0,0,1.04-.11V9.28a8.042,8.042,0,0,1,1.39.75,10.622,10.622,0,0,1,1.54,1.38,8.528,8.528,0,0,0,1.32,1.08.524.524,0,0,0,.72-.06.518.518,0,0,0-.11-.81Zm-4.72-3.66c-.12,0-.14-.03-.14-.15V5.13c0-.1.02-.14.13-.14.68,0,1.36,0,2.03.01a2.277,2.277,0,0,1,1.27.35,1.265,1.265,0,0,1,.61,1.26,1.306,1.306,0,0,1-.88,1.13,3.161,3.161,0,0,1-1.22.2h-1.81Z" fill="#2b2b2b"/>
</svg>
