<svg id="trolley" xmlns="http://www.w3.org/2000/svg" width="100.697" height="88.503" viewBox="0 0 100.697 88.503">
  <path id="Path_106" data-name="Path 106" d="M32.648,95.9h48.5a8.834,8.834,0,0,0,8.583-6.691l10.88-42.732A2.95,2.95,0,0,0,97.747,42.8H20.083l-1.744-5.587A8.811,8.811,0,0,0,9.891,31H2.95a2.95,2.95,0,1,0,0,5.9H9.891a2.937,2.937,0,0,1,2.816,2.071L28.9,90.838a8.848,8.848,0,0,0,3.75,16.862h3.458a8.85,8.85,0,1,0,16.686,0H65.606a8.851,8.851,0,1,0,16.686,0H85.75a2.95,2.95,0,0,0,0-5.9h-53.1a2.95,2.95,0,1,1,0-5.9Zm14.75,14.75a2.95,2.95,0,1,1-2.95-2.95A2.953,2.953,0,0,1,47.4,110.653Zm29.5,0a2.95,2.95,0,1,1-2.95-2.95A2.953,2.953,0,0,1,76.9,110.653ZM67.657,72.3,65.445,90H52.953L50.74,72.3ZM50,66.4,47.79,48.7H70.607L68.395,66.4Zm-3,23.6H34.817L29.292,72.3h15.5Zm37-2.235A2.946,2.946,0,0,1,81.143,90H71.391L73.6,72.3H87.942ZM89.445,66.4h-15.1l2.213-17.7h17.4Zm-47.6-17.7,2.213,17.7H27.45L21.925,48.7Z" transform="translate(0 -31)" fill="#4c27b3"/>
</svg>
